<mxfile host="app.diagrams.net" modified="2024-06-27T10:57:20.244Z" agent="Mozilla/5.0 (Windows NT 10.0; Win64; x64) AppleWebKit/537.36 (KHTML, like Gecko) Chrome/126.0.0.0 Safari/537.36 Edg/126.0.0.0" etag="fd3bBege3RPITS2Tcsqr" version="24.6.3" type="device">
  <diagram name="Page-1" id="13e1069c-82ec-6db2-03f1-153e76fe0fe0">
    <mxGraphModel dx="864" dy="476" grid="1" gridSize="10" guides="1" tooltips="1" connect="1" arrows="1" fold="1" page="1" pageScale="1" pageWidth="1100" pageHeight="850" background="none" math="0" shadow="0">
      <root>
        <mxCell id="0" />
        <mxCell id="1" parent="0" />
        <mxCell id="nlk7sfqb3r6wNFWikMfm-109" value="" style="rounded=1;whiteSpace=wrap;html=1;fillColor=none;strokeColor=#6c8ebf;dashed=1;arcSize=10;shadow=1;" parent="1" vertex="1">
          <mxGeometry x="909" y="1260" width="500" height="290" as="geometry" />
        </mxCell>
        <mxCell id="nlk7sfqb3r6wNFWikMfm-77" value="" style="rounded=1;whiteSpace=wrap;html=1;fillColor=none;strokeColor=#9673a6;dashed=1;shadow=1;arcSize=10;" parent="1" vertex="1">
          <mxGeometry x="910" y="990" width="500" height="230" as="geometry" />
        </mxCell>
        <mxCell id="kFZaCCrDRlSZErMMmTMo-7" value="User" style="shape=umlLifeline;perimeter=lifelinePerimeter;whiteSpace=wrap;html=1;container=0;collapsible=0;recursiveResize=0;outlineConnect=0;rounded=1;shadow=1;comic=0;labelBackgroundColor=none;strokeWidth=1;fontFamily=Verdana;fontSize=12;align=center;fillColor=#d5e8d4;strokeColor=#82b366;size=40;" parent="1" vertex="1">
          <mxGeometry x="870" y="760" width="120" height="900" as="geometry" />
        </mxCell>
        <mxCell id="kFZaCCrDRlSZErMMmTMo-4" value="WebApp" style="shape=umlLifeline;perimeter=lifelinePerimeter;whiteSpace=wrap;html=1;container=1;collapsible=0;recursiveResize=0;outlineConnect=0;rounded=1;shadow=1;comic=0;labelBackgroundColor=none;strokeWidth=1;fontFamily=Verdana;fontSize=12;align=center;fillColor=#dae8fc;strokeColor=#6c8ebf;" parent="1" vertex="1">
          <mxGeometry x="1020" y="760" width="100" height="900" as="geometry" />
        </mxCell>
        <mxCell id="kFZaCCrDRlSZErMMmTMo-10" value="&lt;font style=&quot;font-size: 9px;&quot;&gt;Login request&lt;/font&gt;" style="html=1;verticalAlign=bottom;endArrow=classic;labelBackgroundColor=none;fontFamily=Verdana;fontSize=12;elbow=vertical;rounded=1;endFill=1;shadow=1;" parent="kFZaCCrDRlSZErMMmTMo-4" edge="1">
          <mxGeometry x="-0.0651" relative="1" as="geometry">
            <mxPoint x="-90" y="70" as="sourcePoint" />
            <mxPoint x="50" y="70" as="targetPoint" />
            <mxPoint as="offset" />
          </mxGeometry>
        </mxCell>
        <mxCell id="kFZaCCrDRlSZErMMmTMo-19" value="" style="endArrow=classic;html=1;rounded=0;dashed=1;dashPattern=8 8;shadow=1;" parent="kFZaCCrDRlSZErMMmTMo-4" edge="1">
          <mxGeometry width="50" height="50" relative="1" as="geometry">
            <mxPoint x="50" y="180" as="sourcePoint" />
            <mxPoint x="-90" y="180" as="targetPoint" />
          </mxGeometry>
        </mxCell>
        <mxCell id="kFZaCCrDRlSZErMMmTMo-21" value="&lt;font style=&quot;font-size: 9px;&quot;&gt;Login success&lt;/font&gt;" style="edgeLabel;html=1;align=center;verticalAlign=middle;resizable=0;points=[];" parent="kFZaCCrDRlSZErMMmTMo-19" vertex="1" connectable="0">
          <mxGeometry x="0.0162" y="-4" relative="1" as="geometry">
            <mxPoint y="-6" as="offset" />
          </mxGeometry>
        </mxCell>
        <mxCell id="nlk7sfqb3r6wNFWikMfm-110" value="" style="endArrow=classic;html=1;rounded=0;shadow=1;" parent="kFZaCCrDRlSZErMMmTMo-4" edge="1">
          <mxGeometry width="50" height="50" relative="1" as="geometry">
            <mxPoint x="-84" y="490" as="sourcePoint" />
            <mxPoint x="50.5" y="490" as="targetPoint" />
          </mxGeometry>
        </mxCell>
        <mxCell id="nlk7sfqb3r6wNFWikMfm-111" value="&lt;font style=&quot;font-size: 9px;&quot;&gt;Manage Files&lt;/font&gt;" style="edgeLabel;html=1;align=center;verticalAlign=middle;resizable=0;points=[];" parent="nlk7sfqb3r6wNFWikMfm-110" vertex="1" connectable="0">
          <mxGeometry x="-0.0145" y="5" relative="1" as="geometry">
            <mxPoint y="-5" as="offset" />
          </mxGeometry>
        </mxCell>
        <mxCell id="nlk7sfqb3r6wNFWikMfm-146" value="" style="endArrow=classic;html=1;rounded=0;shadow=1;" parent="kFZaCCrDRlSZErMMmTMo-4" edge="1">
          <mxGeometry width="50" height="50" relative="1" as="geometry">
            <mxPoint x="-85" y="870" as="sourcePoint" />
            <mxPoint x="49.5" y="870" as="targetPoint" />
          </mxGeometry>
        </mxCell>
        <mxCell id="nlk7sfqb3r6wNFWikMfm-147" value="&lt;font style=&quot;font-size: 9px;&quot;&gt;Logout&lt;/font&gt;" style="edgeLabel;html=1;align=center;verticalAlign=middle;resizable=0;points=[];" parent="nlk7sfqb3r6wNFWikMfm-146" vertex="1" connectable="0">
          <mxGeometry x="-0.008" y="2" relative="1" as="geometry">
            <mxPoint x="-3" y="-8" as="offset" />
          </mxGeometry>
        </mxCell>
        <mxCell id="nlk7sfqb3r6wNFWikMfm-113" value="" style="endArrow=classic;html=1;rounded=0;shadow=1;" parent="kFZaCCrDRlSZErMMmTMo-4" edge="1">
          <mxGeometry width="50" height="50" relative="1" as="geometry">
            <mxPoint x="-86" y="540" as="sourcePoint" />
            <mxPoint x="48.5" y="540" as="targetPoint" />
          </mxGeometry>
        </mxCell>
        <mxCell id="nlk7sfqb3r6wNFWikMfm-114" value="&lt;font style=&quot;font-size: 9px;&quot;&gt;Upload File&lt;/font&gt;" style="edgeLabel;html=1;align=center;verticalAlign=middle;resizable=0;points=[];" parent="nlk7sfqb3r6wNFWikMfm-113" vertex="1" connectable="0">
          <mxGeometry x="0.0531" y="1" relative="1" as="geometry">
            <mxPoint y="-9" as="offset" />
          </mxGeometry>
        </mxCell>
        <mxCell id="nlk7sfqb3r6wNFWikMfm-129" value="" style="endArrow=classic;html=1;rounded=0;shadow=1;dashed=1;dashPattern=8 8;" parent="kFZaCCrDRlSZErMMmTMo-4" edge="1">
          <mxGeometry width="50" height="50" relative="1" as="geometry">
            <mxPoint x="49.5" y="690" as="sourcePoint" />
            <mxPoint x="-85" y="690" as="targetPoint" />
          </mxGeometry>
        </mxCell>
        <mxCell id="nlk7sfqb3r6wNFWikMfm-130" value="&lt;font style=&quot;font-size: 9px;&quot;&gt;Favorite success&lt;/font&gt;" style="edgeLabel;html=1;align=center;verticalAlign=middle;resizable=0;points=[];" parent="nlk7sfqb3r6wNFWikMfm-129" vertex="1" connectable="0">
          <mxGeometry x="0.0101" relative="1" as="geometry">
            <mxPoint y="-10" as="offset" />
          </mxGeometry>
        </mxCell>
        <mxCell id="nlk7sfqb3r6wNFWikMfm-72" value="" style="endArrow=classic;html=1;rounded=0;shadow=1;" parent="kFZaCCrDRlSZErMMmTMo-4" edge="1">
          <mxGeometry width="50" height="50" relative="1" as="geometry">
            <mxPoint x="-85" y="210" as="sourcePoint" />
            <mxPoint x="49.5" y="210" as="targetPoint" />
          </mxGeometry>
        </mxCell>
        <mxCell id="nlk7sfqb3r6wNFWikMfm-73" value="&lt;font style=&quot;font-size: 9px;&quot;&gt;Mange folder&lt;/font&gt;" style="edgeLabel;html=1;align=center;verticalAlign=middle;resizable=0;points=[];" parent="nlk7sfqb3r6wNFWikMfm-72" vertex="1" connectable="0">
          <mxGeometry x="-0.1177" relative="1" as="geometry">
            <mxPoint y="-10" as="offset" />
          </mxGeometry>
        </mxCell>
        <mxCell id="nlk7sfqb3r6wNFWikMfm-103" value="" style="endArrow=classic;html=1;rounded=0;dashed=1;dashPattern=8 8;shadow=1;" parent="kFZaCCrDRlSZErMMmTMo-4" edge="1">
          <mxGeometry width="50" height="50" relative="1" as="geometry">
            <mxPoint x="49" y="450" as="sourcePoint" />
            <mxPoint x="-85" y="450" as="targetPoint" />
          </mxGeometry>
        </mxCell>
        <mxCell id="nlk7sfqb3r6wNFWikMfm-104" value="&lt;font style=&quot;font-size: 9px;&quot;&gt;Delete success&lt;/font&gt;" style="edgeLabel;html=1;align=center;verticalAlign=middle;resizable=0;points=[];" parent="nlk7sfqb3r6wNFWikMfm-103" vertex="1" connectable="0">
          <mxGeometry y="-2" relative="1" as="geometry">
            <mxPoint x="-1" y="-7" as="offset" />
          </mxGeometry>
        </mxCell>
        <mxCell id="nlk7sfqb3r6wNFWikMfm-119" value="" style="endArrow=classic;html=1;rounded=0;shadow=1;dashed=1;dashPattern=8 8;" parent="kFZaCCrDRlSZErMMmTMo-4" edge="1">
          <mxGeometry width="50" height="50" relative="1" as="geometry">
            <mxPoint x="48.5" y="590" as="sourcePoint" />
            <mxPoint x="-86" y="590" as="targetPoint" />
          </mxGeometry>
        </mxCell>
        <mxCell id="nlk7sfqb3r6wNFWikMfm-120" value="&lt;font style=&quot;font-size: 9px;&quot;&gt;Upload success&lt;/font&gt;" style="edgeLabel;html=1;align=center;verticalAlign=middle;resizable=0;points=[];" parent="nlk7sfqb3r6wNFWikMfm-119" vertex="1" connectable="0">
          <mxGeometry x="0.0101" relative="1" as="geometry">
            <mxPoint y="-10" as="offset" />
          </mxGeometry>
        </mxCell>
        <mxCell id="nlk7sfqb3r6wNFWikMfm-121" value="" style="endArrow=none;html=1;rounded=0;dashed=1;fillColor=#dae8fc;strokeColor=#6c8ebf;shadow=1;" parent="kFZaCCrDRlSZErMMmTMo-4" edge="1">
          <mxGeometry width="50" height="50" relative="1" as="geometry">
            <mxPoint x="-111" y="600" as="sourcePoint" />
            <mxPoint x="390" y="601" as="targetPoint" />
          </mxGeometry>
        </mxCell>
        <mxCell id="nlk7sfqb3r6wNFWikMfm-122" value="" style="endArrow=classic;html=1;rounded=0;shadow=1;" parent="kFZaCCrDRlSZErMMmTMo-4" edge="1">
          <mxGeometry width="50" height="50" relative="1" as="geometry">
            <mxPoint x="-87" y="640" as="sourcePoint" />
            <mxPoint x="47.5" y="640" as="targetPoint" />
          </mxGeometry>
        </mxCell>
        <mxCell id="nlk7sfqb3r6wNFWikMfm-123" value="&lt;font style=&quot;font-size: 9px;&quot;&gt;Favorite File&lt;/font&gt;" style="edgeLabel;html=1;align=center;verticalAlign=middle;resizable=0;points=[];" parent="nlk7sfqb3r6wNFWikMfm-122" vertex="1" connectable="0">
          <mxGeometry x="-0.0145" y="5" relative="1" as="geometry">
            <mxPoint y="-5" as="offset" />
          </mxGeometry>
        </mxCell>
        <mxCell id="yUrxrtZN9GKuL_BX-Tmy-89" value="" style="endArrow=classic;html=1;rounded=0;shadow=1;dashed=1;dashPattern=8 8;" parent="kFZaCCrDRlSZErMMmTMo-4" edge="1">
          <mxGeometry width="50" height="50" relative="1" as="geometry">
            <mxPoint x="378.5" y="680" as="sourcePoint" />
            <mxPoint x="49" y="680" as="targetPoint" />
          </mxGeometry>
        </mxCell>
        <mxCell id="yUrxrtZN9GKuL_BX-Tmy-90" value="&lt;font style=&quot;font-size: 9px;&quot;&gt;File marked as favorite&lt;/font&gt;" style="edgeLabel;html=1;align=center;verticalAlign=middle;resizable=0;points=[];" parent="yUrxrtZN9GKuL_BX-Tmy-89" vertex="1" connectable="0">
          <mxGeometry x="0.0101" relative="1" as="geometry">
            <mxPoint y="-10" as="offset" />
          </mxGeometry>
        </mxCell>
        <mxCell id="nlk7sfqb3r6wNFWikMfm-131" value="" style="endArrow=none;html=1;rounded=0;dashed=1;fillColor=#dae8fc;strokeColor=#6c8ebf;shadow=1;" parent="kFZaCCrDRlSZErMMmTMo-4" edge="1">
          <mxGeometry width="50" height="50" relative="1" as="geometry">
            <mxPoint x="-111" y="700" as="sourcePoint" />
            <mxPoint x="390" y="701" as="targetPoint" />
          </mxGeometry>
        </mxCell>
        <mxCell id="nlk7sfqb3r6wNFWikMfm-133" value="" style="endArrow=classic;html=1;rounded=0;shadow=1;" parent="kFZaCCrDRlSZErMMmTMo-4" edge="1">
          <mxGeometry width="50" height="50" relative="1" as="geometry">
            <mxPoint x="-86" y="740" as="sourcePoint" />
            <mxPoint x="48" y="740" as="targetPoint" />
          </mxGeometry>
        </mxCell>
        <mxCell id="nlk7sfqb3r6wNFWikMfm-134" value="&lt;font style=&quot;font-size: 9px;&quot;&gt;Delete File&lt;/font&gt;" style="edgeLabel;html=1;align=center;verticalAlign=middle;resizable=0;points=[];" parent="nlk7sfqb3r6wNFWikMfm-133" vertex="1" connectable="0">
          <mxGeometry x="0.0531" y="1" relative="1" as="geometry">
            <mxPoint y="-9" as="offset" />
          </mxGeometry>
        </mxCell>
        <mxCell id="nlk7sfqb3r6wNFWikMfm-137" value="" style="endArrow=classic;html=1;rounded=0;shadow=1;dashed=1;dashPattern=8 8;" parent="kFZaCCrDRlSZErMMmTMo-4" edge="1">
          <mxGeometry width="50" height="50" relative="1" as="geometry">
            <mxPoint x="48.5" y="770" as="sourcePoint" />
            <mxPoint x="-86" y="770" as="targetPoint" />
          </mxGeometry>
        </mxCell>
        <mxCell id="nlk7sfqb3r6wNFWikMfm-138" value="&lt;font style=&quot;font-size: 9px;&quot;&gt;Delete success&lt;/font&gt;" style="edgeLabel;html=1;align=center;verticalAlign=middle;resizable=0;points=[];" parent="nlk7sfqb3r6wNFWikMfm-137" vertex="1" connectable="0">
          <mxGeometry x="0.0101" relative="1" as="geometry">
            <mxPoint y="-10" as="offset" />
          </mxGeometry>
        </mxCell>
        <mxCell id="nlk7sfqb3r6wNFWikMfm-140" value="" style="endArrow=classic;html=1;rounded=0;shadow=1;" parent="kFZaCCrDRlSZErMMmTMo-4" edge="1">
          <mxGeometry width="50" height="50" relative="1" as="geometry">
            <mxPoint x="-85" y="810" as="sourcePoint" />
            <mxPoint x="48.5" y="810" as="targetPoint" />
          </mxGeometry>
        </mxCell>
        <mxCell id="nlk7sfqb3r6wNFWikMfm-141" value="&lt;font style=&quot;font-size: 9px;&quot;&gt;Search Files&lt;/font&gt;" style="edgeLabel;html=1;align=center;verticalAlign=middle;resizable=0;points=[];" parent="nlk7sfqb3r6wNFWikMfm-140" vertex="1" connectable="0">
          <mxGeometry x="-0.0012" y="2" relative="1" as="geometry">
            <mxPoint y="-7" as="offset" />
          </mxGeometry>
        </mxCell>
        <mxCell id="nlk7sfqb3r6wNFWikMfm-144" value="" style="endArrow=classic;html=1;rounded=0;shadow=1;dashed=1;dashPattern=8 8;" parent="kFZaCCrDRlSZErMMmTMo-4" edge="1">
          <mxGeometry width="50" height="50" relative="1" as="geometry">
            <mxPoint x="48.500000000000455" y="840" as="sourcePoint" />
            <mxPoint x="-86" y="840" as="targetPoint" />
          </mxGeometry>
        </mxCell>
        <mxCell id="nlk7sfqb3r6wNFWikMfm-145" value="&lt;font style=&quot;font-size: 9px;&quot;&gt;Display results&lt;/font&gt;" style="edgeLabel;html=1;align=center;verticalAlign=middle;resizable=0;points=[];" parent="nlk7sfqb3r6wNFWikMfm-144" vertex="1" connectable="0">
          <mxGeometry x="0.0103" y="-1" relative="1" as="geometry">
            <mxPoint x="-1" y="-7" as="offset" />
          </mxGeometry>
        </mxCell>
        <mxCell id="kFZaCCrDRlSZErMMmTMo-13" value="AuthServer" style="shape=umlLifeline;perimeter=lifelinePerimeter;whiteSpace=wrap;html=1;container=1;collapsible=0;recursiveResize=0;outlineConnect=0;rounded=1;shadow=1;comic=0;labelBackgroundColor=none;strokeWidth=1;fontFamily=Verdana;fontSize=12;align=center;fillColor=#f8cecc;strokeColor=#b85450;" parent="1" vertex="1">
          <mxGeometry x="1180" y="760" width="100" height="900" as="geometry" />
        </mxCell>
        <mxCell id="kFZaCCrDRlSZErMMmTMo-17" value="&lt;font style=&quot;font-size: 9px;&quot;&gt;Authenticate&lt;/font&gt;" style="html=1;verticalAlign=bottom;endArrow=classic;labelBackgroundColor=none;fontFamily=Verdana;fontSize=12;edgeStyle=elbowEdgeStyle;elbow=vertical;startArrow=none;startFill=0;endFill=1;shadow=1;" parent="kFZaCCrDRlSZErMMmTMo-13" edge="1">
          <mxGeometry x="0.0031" relative="1" as="geometry">
            <mxPoint x="-110" y="80" as="sourcePoint" />
            <mxPoint x="49.5" y="80" as="targetPoint" />
            <mxPoint as="offset" />
          </mxGeometry>
        </mxCell>
        <mxCell id="nlk7sfqb3r6wNFWikMfm-67" value="" style="endArrow=classic;html=1;rounded=0;entryX=0.5;entryY=0.235;entryDx=0;entryDy=0;entryPerimeter=0;shadow=1;" parent="kFZaCCrDRlSZErMMmTMo-13" edge="1">
          <mxGeometry width="50" height="50" relative="1" as="geometry">
            <mxPoint x="49.833333333333485" y="140" as="sourcePoint" />
            <mxPoint x="50" y="159.79999999999995" as="targetPoint" />
            <Array as="points">
              <mxPoint x="110" y="140" />
              <mxPoint x="110" y="160" />
            </Array>
          </mxGeometry>
        </mxCell>
        <mxCell id="nlk7sfqb3r6wNFWikMfm-68" value="&lt;font style=&quot;font-size: 9px;&quot;&gt;Generate token&lt;/font&gt;" style="edgeLabel;html=1;align=center;verticalAlign=middle;resizable=0;points=[];" parent="nlk7sfqb3r6wNFWikMfm-67" vertex="1" connectable="0">
          <mxGeometry x="0.0267" y="-2" relative="1" as="geometry">
            <mxPoint x="7" y="-2" as="offset" />
          </mxGeometry>
        </mxCell>
        <mxCell id="kFZaCCrDRlSZErMMmTMo-18" value="" style="endArrow=none;html=1;rounded=0;endFill=0;startArrow=classic;startFill=1;dashed=1;dashPattern=8 8;shadow=1;" parent="kFZaCCrDRlSZErMMmTMo-13" edge="1">
          <mxGeometry width="50" height="50" relative="1" as="geometry">
            <mxPoint x="-110" y="170" as="sourcePoint" />
            <mxPoint x="50.46999999999994" y="170" as="targetPoint" />
          </mxGeometry>
        </mxCell>
        <mxCell id="kFZaCCrDRlSZErMMmTMo-20" value="&lt;font style=&quot;font-size: 9px;&quot;&gt;Auth token&lt;/font&gt;" style="edgeLabel;html=1;align=center;verticalAlign=middle;resizable=0;points=[];" parent="kFZaCCrDRlSZErMMmTMo-18" vertex="1" connectable="0">
          <mxGeometry x="0.0742" y="4" relative="1" as="geometry">
            <mxPoint y="-6" as="offset" />
          </mxGeometry>
        </mxCell>
        <mxCell id="nlk7sfqb3r6wNFWikMfm-142" value="" style="endArrow=classic;html=1;rounded=0;shadow=1;" parent="kFZaCCrDRlSZErMMmTMo-13" edge="1">
          <mxGeometry width="50" height="50" relative="1" as="geometry">
            <mxPoint x="-111" y="820" as="sourcePoint" />
            <mxPoint x="218.5" y="820" as="targetPoint" />
          </mxGeometry>
        </mxCell>
        <mxCell id="nlk7sfqb3r6wNFWikMfm-143" value="&lt;font style=&quot;font-size: 9px;&quot;&gt;Query Files&lt;/font&gt;" style="edgeLabel;html=1;align=center;verticalAlign=middle;resizable=0;points=[];" parent="nlk7sfqb3r6wNFWikMfm-142" vertex="1" connectable="0">
          <mxGeometry x="-0.0034" y="3" relative="1" as="geometry">
            <mxPoint x="-4" y="-7" as="offset" />
          </mxGeometry>
        </mxCell>
        <mxCell id="nlk7sfqb3r6wNFWikMfm-3" value="Database" style="shape=umlLifeline;perimeter=lifelinePerimeter;whiteSpace=wrap;html=1;container=1;collapsible=0;recursiveResize=0;outlineConnect=0;rounded=1;shadow=1;comic=0;labelBackgroundColor=none;strokeWidth=1;fontFamily=Verdana;fontSize=12;align=center;fillColor=#ffe6cc;strokeColor=#d79b00;" parent="1" vertex="1">
          <mxGeometry x="1350" y="760" width="100" height="900" as="geometry" />
        </mxCell>
        <mxCell id="nlk7sfqb3r6wNFWikMfm-65" value="" style="endArrow=classic;html=1;rounded=0;shadow=1;" parent="nlk7sfqb3r6wNFWikMfm-3" edge="1">
          <mxGeometry width="50" height="50" relative="1" as="geometry">
            <mxPoint x="-120" y="90" as="sourcePoint" />
            <mxPoint x="49.5" y="90" as="targetPoint" />
          </mxGeometry>
        </mxCell>
        <mxCell id="nlk7sfqb3r6wNFWikMfm-66" value="&lt;font style=&quot;font-size: 9px;&quot;&gt;Save credentical&lt;/font&gt;" style="edgeLabel;html=1;align=center;verticalAlign=middle;resizable=0;points=[];" parent="nlk7sfqb3r6wNFWikMfm-65" vertex="1" connectable="0">
          <mxGeometry x="0.2861" y="7" relative="1" as="geometry">
            <mxPoint x="-21" y="-3" as="offset" />
          </mxGeometry>
        </mxCell>
        <mxCell id="nlk7sfqb3r6wNFWikMfm-79" value="&lt;font style=&quot;font-size: 9px;&quot;&gt;Create folder&lt;/font&gt;" style="text;html=1;align=center;verticalAlign=middle;whiteSpace=wrap;rounded=0;" parent="1" vertex="1">
          <mxGeometry x="935" y="990" width="90" height="20" as="geometry" />
        </mxCell>
        <mxCell id="nlk7sfqb3r6wNFWikMfm-80" value="&lt;font style=&quot;font-size: 9px;&quot;&gt;Create folder&lt;/font&gt;" style="html=1;verticalAlign=bottom;endArrow=classic;labelBackgroundColor=none;fontFamily=Verdana;fontSize=12;elbow=vertical;endFill=1;shadow=1;" parent="1" edge="1">
          <mxGeometry relative="1" as="geometry">
            <mxPoint x="934" y="1030.45" as="sourcePoint" />
            <mxPoint x="1069.5" y="1030" as="targetPoint" />
            <Array as="points" />
          </mxGeometry>
        </mxCell>
        <mxCell id="nlk7sfqb3r6wNFWikMfm-81" value="" style="endArrow=classic;html=1;rounded=0;shadow=1;" parent="1" edge="1">
          <mxGeometry width="50" height="50" relative="1" as="geometry">
            <mxPoint x="1070" y="1041" as="sourcePoint" />
            <mxPoint x="1400" y="1041" as="targetPoint" />
          </mxGeometry>
        </mxCell>
        <mxCell id="nlk7sfqb3r6wNFWikMfm-82" value="&lt;font style=&quot;font-size: 9px;&quot;&gt;Create folder request&lt;/font&gt;" style="edgeLabel;html=1;align=center;verticalAlign=middle;resizable=0;points=[];" parent="nlk7sfqb3r6wNFWikMfm-81" vertex="1" connectable="0">
          <mxGeometry x="0.0064" y="1" relative="1" as="geometry">
            <mxPoint y="-9" as="offset" />
          </mxGeometry>
        </mxCell>
        <mxCell id="nlk7sfqb3r6wNFWikMfm-83" value="" style="endArrow=none;html=1;rounded=0;dashed=1;dashPattern=8 8;shadow=1;startArrow=classic;startFill=1;endFill=0;" parent="1" edge="1">
          <mxGeometry width="50" height="50" relative="1" as="geometry">
            <mxPoint x="1069" y="1070.32" as="sourcePoint" />
            <mxPoint x="1398.75" y="1070.0000000000002" as="targetPoint" />
          </mxGeometry>
        </mxCell>
        <mxCell id="nlk7sfqb3r6wNFWikMfm-84" value="&lt;font style=&quot;font-size: 9px;&quot;&gt;New folder data&lt;/font&gt;" style="edgeLabel;html=1;align=center;verticalAlign=middle;resizable=0;points=[];" parent="nlk7sfqb3r6wNFWikMfm-83" vertex="1" connectable="0">
          <mxGeometry x="0.0139" y="-1" relative="1" as="geometry">
            <mxPoint x="-3" y="-11" as="offset" />
          </mxGeometry>
        </mxCell>
        <mxCell id="nlk7sfqb3r6wNFWikMfm-87" value="" style="endArrow=classic;html=1;rounded=0;entryX=1.164;entryY=0.99;entryDx=0;entryDy=0;entryPerimeter=0;shadow=1;dashed=1;dashPattern=8 8;" parent="1" edge="1">
          <mxGeometry width="50" height="50" relative="1" as="geometry">
            <mxPoint x="1070" y="1080" as="sourcePoint" />
            <mxPoint x="935.0000000000001" y="1079.9999999999998" as="targetPoint" />
          </mxGeometry>
        </mxCell>
        <mxCell id="nlk7sfqb3r6wNFWikMfm-88" value="&lt;font style=&quot;font-size: 9px;&quot;&gt;Folder created&lt;/font&gt;" style="edgeLabel;html=1;align=center;verticalAlign=middle;resizable=0;points=[];" parent="nlk7sfqb3r6wNFWikMfm-87" vertex="1" connectable="0">
          <mxGeometry x="0.0371" y="-7" relative="1" as="geometry">
            <mxPoint y="-3" as="offset" />
          </mxGeometry>
        </mxCell>
        <mxCell id="nlk7sfqb3r6wNFWikMfm-90" value="&lt;font style=&quot;font-size: 9px;&quot;&gt;Delete folder&lt;/font&gt;" style="text;html=1;align=center;verticalAlign=middle;whiteSpace=wrap;rounded=0;" parent="1" vertex="1">
          <mxGeometry x="934" y="1100" width="90" height="20" as="geometry" />
        </mxCell>
        <mxCell id="nlk7sfqb3r6wNFWikMfm-97" value="Loop" style="swimlane;horizontal=0;whiteSpace=wrap;html=1;rounded=1;fillColor=#fff2cc;strokeColor=#d6b656;shadow=1;" parent="1" vertex="1">
          <mxGeometry x="1039" y="1120" width="370" height="53" as="geometry" />
        </mxCell>
        <mxCell id="nlk7sfqb3r6wNFWikMfm-98" value="" style="endArrow=classic;html=1;rounded=0;shadow=1;" parent="nlk7sfqb3r6wNFWikMfm-97" edge="1">
          <mxGeometry width="50" height="50" relative="1" as="geometry">
            <mxPoint x="31" y="40" as="sourcePoint" />
            <mxPoint x="358" y="40" as="targetPoint" />
          </mxGeometry>
        </mxCell>
        <mxCell id="nlk7sfqb3r6wNFWikMfm-100" value="&lt;font style=&quot;font-size: 9px;&quot;&gt;Find and Delete File&lt;/font&gt;" style="edgeLabel;html=1;align=center;verticalAlign=middle;resizable=0;points=[];" parent="nlk7sfqb3r6wNFWikMfm-98" vertex="1" connectable="0">
          <mxGeometry x="-0.0378" y="2" relative="1" as="geometry">
            <mxPoint y="-9" as="offset" />
          </mxGeometry>
        </mxCell>
        <mxCell id="nlk7sfqb3r6wNFWikMfm-99" value="&lt;font style=&quot;font-size: 9px;&quot;&gt;For each file in folder&lt;/font&gt;" style="text;html=1;align=center;verticalAlign=middle;whiteSpace=wrap;rounded=0;" parent="1" vertex="1">
          <mxGeometry x="1071.13" y="1120" width="127.87" height="20" as="geometry" />
        </mxCell>
        <mxCell id="nlk7sfqb3r6wNFWikMfm-101" value="" style="endArrow=classic;html=1;rounded=0;shadow=1;" parent="1" edge="1">
          <mxGeometry width="50" height="50" relative="1" as="geometry">
            <mxPoint x="1071.13" y="1200" as="sourcePoint" />
            <mxPoint x="1400" y="1200" as="targetPoint" />
          </mxGeometry>
        </mxCell>
        <mxCell id="nlk7sfqb3r6wNFWikMfm-102" value="&lt;font style=&quot;font-size: 9px;&quot;&gt;Delete folder&lt;/font&gt;" style="edgeLabel;html=1;align=center;verticalAlign=middle;resizable=0;points=[];" parent="nlk7sfqb3r6wNFWikMfm-101" vertex="1" connectable="0">
          <mxGeometry x="0.0024" y="5" relative="1" as="geometry">
            <mxPoint x="1" y="-4" as="offset" />
          </mxGeometry>
        </mxCell>
        <mxCell id="nlk7sfqb3r6wNFWikMfm-124" value="&lt;font style=&quot;font-size: 9px;&quot;&gt;Favorite File&lt;/font&gt;" style="text;html=1;align=center;verticalAlign=middle;whiteSpace=wrap;rounded=0;" parent="1" vertex="1">
          <mxGeometry x="932.5" y="1360" width="68" height="20" as="geometry" />
        </mxCell>
        <mxCell id="nlk7sfqb3r6wNFWikMfm-148" value="&lt;font style=&quot;font-size: 10px;&quot;&gt;Storage service sequence diagram&lt;/font&gt;" style="text;html=1;align=center;verticalAlign=middle;whiteSpace=wrap;rounded=0;" parent="1" vertex="1">
          <mxGeometry x="1050" y="1660" width="200" height="20" as="geometry" />
        </mxCell>
        <mxCell id="nlk7sfqb3r6wNFWikMfm-71" value="" style="html=1;points=[];perimeter=orthogonalPerimeter;rounded=1;shadow=1;comic=0;labelBackgroundColor=none;strokeWidth=1;fontFamily=Verdana;fontSize=12;align=center;fillColor=#d5e8d4;strokeColor=#82b366;" parent="1" vertex="1">
          <mxGeometry x="924" y="970" width="10" height="660" as="geometry" />
        </mxCell>
        <mxCell id="nlk7sfqb3r6wNFWikMfm-112" value="&lt;font style=&quot;font-size: 9px;&quot;&gt;Upload File&lt;/font&gt;" style="text;html=1;align=center;verticalAlign=middle;whiteSpace=wrap;rounded=0;" parent="1" vertex="1">
          <mxGeometry x="935" y="1260" width="65" height="20" as="geometry" />
        </mxCell>
        <mxCell id="nlk7sfqb3r6wNFWikMfm-127" value="" style="endArrow=classic;html=1;rounded=0;shadow=1;" parent="1" edge="1">
          <mxGeometry width="50" height="50" relative="1" as="geometry">
            <mxPoint x="1071.13" y="1411" as="sourcePoint" />
            <mxPoint x="1399.13" y="1410" as="targetPoint" />
          </mxGeometry>
        </mxCell>
        <mxCell id="nlk7sfqb3r6wNFWikMfm-128" value="&lt;font style=&quot;font-size: 9px;&quot;&gt;Mark File as Favorite&lt;/font&gt;" style="edgeLabel;html=1;align=center;verticalAlign=middle;resizable=0;points=[];" parent="nlk7sfqb3r6wNFWikMfm-127" vertex="1" connectable="0">
          <mxGeometry x="0.0057" y="1" relative="1" as="geometry">
            <mxPoint x="-5" y="-8" as="offset" />
          </mxGeometry>
        </mxCell>
        <mxCell id="yUrxrtZN9GKuL_BX-Tmy-86" value="" style="endArrow=classic;html=1;rounded=0;shadow=1;dashed=1;dashPattern=8 8;" parent="1" edge="1">
          <mxGeometry width="50" height="50" relative="1" as="geometry">
            <mxPoint x="1400.63" y="1340" as="sourcePoint" />
            <mxPoint x="1071.13" y="1340" as="targetPoint" />
          </mxGeometry>
        </mxCell>
        <mxCell id="yUrxrtZN9GKuL_BX-Tmy-87" value="&lt;font style=&quot;font-size: 9px;&quot;&gt;File created&lt;/font&gt;" style="edgeLabel;html=1;align=center;verticalAlign=middle;resizable=0;points=[];" parent="yUrxrtZN9GKuL_BX-Tmy-86" vertex="1" connectable="0">
          <mxGeometry x="0.0101" relative="1" as="geometry">
            <mxPoint y="-10" as="offset" />
          </mxGeometry>
        </mxCell>
        <mxCell id="nlk7sfqb3r6wNFWikMfm-115" value="" style="endArrow=classic;html=1;rounded=0;shadow=1;" parent="1" edge="1">
          <mxGeometry width="50" height="50" relative="1" as="geometry">
            <mxPoint x="1071.13" y="1311" as="sourcePoint" />
            <mxPoint x="1399.13" y="1310" as="targetPoint" />
          </mxGeometry>
        </mxCell>
        <mxCell id="nlk7sfqb3r6wNFWikMfm-116" value="&lt;font style=&quot;font-size: 9px;&quot;&gt;Store File&lt;/font&gt;" style="edgeLabel;html=1;align=center;verticalAlign=middle;resizable=0;points=[];" parent="nlk7sfqb3r6wNFWikMfm-115" vertex="1" connectable="0">
          <mxGeometry x="0.0057" y="1" relative="1" as="geometry">
            <mxPoint x="-5" y="-8" as="offset" />
          </mxGeometry>
        </mxCell>
        <mxCell id="nlk7sfqb3r6wNFWikMfm-135" value="" style="endArrow=classic;html=1;rounded=0;shadow=1;" parent="1" edge="1">
          <mxGeometry width="50" height="50" relative="1" as="geometry">
            <mxPoint x="1071.13" y="1511" as="sourcePoint" />
            <mxPoint x="1399.13" y="1510" as="targetPoint" />
          </mxGeometry>
        </mxCell>
        <mxCell id="nlk7sfqb3r6wNFWikMfm-136" value="&lt;font style=&quot;font-size: 9px;&quot;&gt;Remove File&lt;/font&gt;" style="edgeLabel;html=1;align=center;verticalAlign=middle;resizable=0;points=[];" parent="nlk7sfqb3r6wNFWikMfm-135" vertex="1" connectable="0">
          <mxGeometry x="0.0057" y="1" relative="1" as="geometry">
            <mxPoint x="-5" y="-8" as="offset" />
          </mxGeometry>
        </mxCell>
        <mxCell id="nlk7sfqb3r6wNFWikMfm-132" value="&lt;font style=&quot;font-size: 9px;&quot;&gt;Delete File&lt;/font&gt;" style="text;html=1;align=center;verticalAlign=middle;whiteSpace=wrap;rounded=0;" parent="1" vertex="1">
          <mxGeometry x="934" y="1460" width="65" height="20" as="geometry" />
        </mxCell>
        <mxCell id="X9WeqtpWGwoTIuWJoFan-1" value="" style="endArrow=none;html=1;rounded=0;dashed=1;fillColor=#dae8fc;strokeColor=#6c8ebf;shadow=1;" edge="1" parent="1">
          <mxGeometry width="50" height="50" relative="1" as="geometry">
            <mxPoint x="910" y="1100" as="sourcePoint" />
            <mxPoint x="1411" y="1101" as="targetPoint" />
          </mxGeometry>
        </mxCell>
        <mxCell id="nlk7sfqb3r6wNFWikMfm-69" value="" style="endArrow=none;html=1;rounded=0;endFill=0;startArrow=classic;startFill=1;dashed=1;dashPattern=8 8;shadow=1;" parent="1" edge="1">
          <mxGeometry width="50" height="50" relative="1" as="geometry">
            <mxPoint x="1230.0033333333336" y="880" as="sourcePoint" />
            <mxPoint x="1400.47" y="880" as="targetPoint" />
          </mxGeometry>
        </mxCell>
        <mxCell id="nlk7sfqb3r6wNFWikMfm-70" value="&lt;font style=&quot;font-size: 9px;&quot;&gt;Save success&lt;/font&gt;" style="edgeLabel;html=1;align=center;verticalAlign=middle;resizable=0;points=[];" parent="nlk7sfqb3r6wNFWikMfm-69" vertex="1" connectable="0">
          <mxGeometry x="0.0742" y="4" relative="1" as="geometry">
            <mxPoint y="-6" as="offset" />
          </mxGeometry>
        </mxCell>
      </root>
    </mxGraphModel>
  </diagram>
</mxfile>
